<?xml version="1.0" encoding="utf-8"?>
<!-- Generator: Adobe Illustrator 22.0.1, SVG Export Plug-In . SVG Version: 6.00 Build 0)  -->
<svg version="1.1" id="Layer_1" xmlns="http://www.w3.org/2000/svg" xmlns:xlink="http://www.w3.org/1999/xlink" x="0px" y="0px"
	 viewBox="0 0 504.1 504.1" style="enable-background:new 0 0 504.1 504.1;" xml:space="preserve">
<style type="text/css">
	.st0{fill:#324D5B;}
	.st1{fill:#BBC94B;}
	.st2{fill:#9EA53F;}
	.st3{fill:#2D4552;}
	.st4{fill:#E4E7E7;}
	.st5{fill:#D8DBDB;}
	.st6{fill:#AAB246;}
	.st7{fill:#FFFFFF;}
	.st8{fill:#F2F2F2;}
	.st9{fill:#2F4956;}
	.st10{fill:none;}
</style>
<path class="st0" d="M252.3,386c-26,0-47.3,21.3-47.3,47.3s21.3,47.3,47.3,47.3s47.3-21.3,47.3-47.3S278.3,386,252.3,386z
	 M378.3,354.5c-26,0-47.3,21.3-47.3,47.3s21.3,47.3,47.3,47.3s47.3-21.3,47.3-47.3S404.3,354.5,378.3,354.5z M126.2,354.5
	c-26,0-47.3,21.3-47.3,47.3s21.3,47.3,47.3,47.3s47.3-21.3,47.3-47.3S152.2,354.5,126.2,354.5z"/>
<path class="st1" d="M107.3,233.9c80-49.2,209.5-49.2,289.5,0s80,129.2,0,178c-80,49.2-209.5,49.2-289.5,0S27.4,283.2,107.3,233.9z"
	/>
<path class="st2" d="M127,400.1c-77.2-47.7-80-123.7-7.9-172.9c-3.9,2-7.9,4.3-11.8,6.7c-80,49.2-80,129.2,0,178
	c80,49.2,209.5,49.2,289.5,0c2.8-1.6,5.5-3.5,7.9-5.1C324.3,449.4,203,447,127,400.1z"/>
<path class="st0" d="M73.8,146.1c98.5-58.3,258-58.3,356.4,0s98.5,153.2,0,211.5s-258,58.3-356.4,0S-24.6,204.8,73.8,146.1z"/>
<path class="st3" d="M446.4,342.3c-98.5,58.3-258,58.3-356.4,0C10.4,295-4.9,224.5,43.5,168.2C-23,226.5-12.8,306.4,73.8,358
	c98.5,58.3,258,58.3,356.4,0c18.9-11.4,34.3-24,46.1-37.4C467.7,328.1,457.8,335.2,446.4,342.3z"/>
<path class="st4" d="M252.3,23.6c87,0,157.5,70.5,157.5,157.5s-70.5,126-157.5,126s-157.5-39-157.5-126S165.2,23.6,252.3,23.6z"/>
<path class="st5" d="M94.7,181.2c0,86.6,70.1,125.6,156.4,126h1.2V23.6C165.2,23.6,94.7,94.1,94.7,181.2z"/>
<path class="st1" d="M252.3,307.2c35.4,0,68.1-6.3,94.5-20.1V181.2c0-52.4-42.1-94.5-94.5-94.5s-94.5,42.1-94.5,94.5v105.9
	C184.1,300.9,216.8,307.2,252.3,307.2z"/>
<path class="st6" d="M157.7,181.2v105.9c26,13.4,58.7,20.1,93.7,20.1h0.8V86.6C199.9,86.6,157.7,129.2,157.7,181.2z"/>
<path class="st7" d="M252.3,149.7c26,0,47.3,21.3,47.3,47.3s-21.3,47.3-47.3,47.3S205,222.9,205,196.9S226.3,149.7,252.3,149.7z"/>
<path class="st8" d="M252.3,149.7c-26,0-47.3,21.3-47.3,47.3s21.3,47.3,47.3,47.3V149.7z"/>
<path class="st0" d="M252.3,173.3c13,0,23.6,10.6,23.6,23.6s-10.6,23.6-23.6,23.6s-23.6-10.6-23.6-23.6S239.3,173.3,252.3,173.3z"/>
<path class="st9" d="M252.3,173.3c-13,0-23.6,10.6-23.6,23.6s10.6,23.6,23.6,23.6V173.3z"/>
<line class="st10" x1="252.3" y1="346.7" x2="252.3" y2="346.7"/>
<g>
	<g>
		<path class="st1" d="M385.1,323.9c4.2,13.2-1.4,21.6-9.2,24.1c-8.4,2.7-17.1-2.2-20.8-13.9c-3.7-11.7,0.1-21.1,9.4-24
			C373.4,307.3,381.7,313,385.1,323.9z M364.3,330.9c1.9,6.2,5.5,10.2,9.3,9c3.5-1.1,4.3-6.2,2.3-12.7c-1.7-5.3-5.1-10.3-9.1-9
			C362.5,319.5,362.6,325.5,364.3,330.9z"/>
		<path class="st1" d="M337.7,306.9l2.3,10.6l6.6-1.4l1.8,8.5l-6.6,1.4l2.9,13.4c1,4.5,2.3,6.3,5,5.8c1.2-0.3,2.1-0.6,2.7-0.9
			l1.9,8.7c-1.1,0.8-3.2,1.7-5.8,2.3c-3,0.6-5.7-0.1-7.6-1.7c-2.2-1.8-3.8-5.2-4.9-10.4l-3.2-15.2l-3.9,0.8l-1.8-8.5l3.9-0.8l-1.7-8
			L337.7,306.9z"/>
		<path class="st1" d="M316.3,311l1.6,10.7l6.7-1l1.3,8.6l-6.7,1l2,13.6c0.7,4.5,1.9,6.5,4.7,6.1c1.2-0.2,2.1-0.5,2.7-0.8l1.4,8.8
			c-1.1,0.7-3.3,1.5-5.9,1.9c-3,0.4-5.7-0.5-7.5-2.2c-2.1-2-3.4-5.4-4.2-10.7l-2.3-15.3l-4,0.6l-1.3-8.6l4-0.6l-1.2-8.1L316.3,311z"
			/>
		<path class="st1" d="M284.3,348.2c0.7,4.9,4.7,6.9,9.1,6.5c3.2-0.3,5.7-1,8.2-2.3l1.9,7.8c-3,1.8-6.7,2.9-10.8,3.3
			c-10.2,0.8-16.7-6.2-17.7-17.9c-0.8-9.6,3.2-20.6,13.6-21.4c9.8-0.8,14.3,8.4,15,17.8c0.2,2,0.1,3.8,0,4.7L284.3,348.2z
			 M294.7,339.3c-0.2-2.8-1.6-7.6-5.9-7.2c-4,0.3-5.2,5-5.2,8.1L294.7,339.3z"/>
		<path class="st1" d="M239.6,338.8c0-4.7-0.2-8.7-0.3-12.1l8.2-0.1l0.5,5.2l0.2,0c1.2-2.4,4.3-6.1,9.3-6.2c6.2,0,10.9,5.1,11,16.2
			l0.2,22.4l-9.4,0.1l-0.1-21c0-4.9-1.5-8.2-4.9-8.2c-2.6,0-4.1,2.3-4.8,4.5c-0.2,0.7-0.3,1.9-0.3,2.9l0.1,21.9l-9.4,0.1
			L239.6,338.8z"/>
		<path class="st1" d="M213,347.6c-0.1,4.9,3.6,7.5,8,7.8c3.2,0.2,5.8-0.1,8.4-1l0.7,8c-3.3,1.4-7.1,1.9-11.1,1.6
			c-10.3-0.8-15.6-8.7-14.7-20.4c0.7-9.6,6.3-19.9,16.8-19.1c9.8,0.7,12.8,10.5,12.1,19.9c-0.2,2-0.5,3.8-0.7,4.6L213,347.6z
			 M224.7,340.4c0.2-2.8-0.4-7.7-4.7-8.1c-4-0.3-5.9,4.1-6.4,7.2L224.7,340.4z"/>
		<path class="st1" d="M170.5,331c0.8-4.7,1.3-8.6,1.7-12l8.1,1.3l-0.4,5.3l0.2,0c1.6-2.2,5.2-5.3,10.2-4.5c6.1,1,9.9,6.9,8.1,17.9
			l-3.6,22.1l-9.3-1.5l3.4-20.7c0.8-4.8,0-8.3-3.4-8.9c-2.6-0.4-4.4,1.6-5.4,3.6c-0.4,0.7-0.6,1.8-0.8,2.8l-3.5,21.6l-9.3-1.5
			L170.5,331z"/>
		<path class="st1" d="M145.3,356.5c-3.9,1.2-7.5,1-11.5-0.2c-9.7-2.9-15.4-14.3-11.1-28.5c4.5-15.3,17-26,30.2-22
			c10.3,3.1,14.6,14.2,10.9,26.6c-3.3,11.1-10.2,16.2-15.8,14.5c-2.4-0.7-4-3.4-2.5-7.8l-0.2-0.1c-3.4,3.8-6.8,5.1-10.3,4
			c-3.4-1-5.4-5.4-3.6-11.3c2.7-9.2,11.1-15.9,19.3-13.4c2.6,0.8,4.6,2.1,5.9,3.5l-6,12.8c-2.6,5.4-2.6,8.2-0.7,8.8
			c3,1,7.9-3.1,10.5-11.7c3.2-10.8,0.3-20-8.9-22.8c-9.7-2.9-20.7,4.3-25.2,19.3c-3.7,12.4,0.5,22,9.3,24.6c3.4,1,6.8,1.1,9.7,0.1
			L145.3,356.5z M151.6,323.5c-0.5-0.4-1.5-1-2.8-1.4c-5.2-1.6-11.3,3.3-13.4,10.5c-1,3.3-0.4,6,2.2,6.8c3.4,1,8.2-3.5,10.3-7.9
			L151.6,323.5z"/>
	</g>
</g>
</svg>
